# xmcd
#
# Track frame offsets:
#	182
#	21895
#	61220
#	82457
#	92170
#	110695
#	128545
#	148045
#	168445
#	188732
#
# Disc length: 2995
#
# Revision: 4
# Processed by: cddbd v1.5.1PL0 Copyright (c) Steve Scherf et al.
# Submitted via: ExactAudioCopy v0.90b3
# Normalized: r3:DSETVAR1
#
DISCID=890bb10a
DTITLE=Various Artist - The Ultimate Blues Collection [CD 2)
DYEAR=1993
DGENRE=Blues
TTITLE0=Taj Mahal - Leaving Trunk
TTITLE1=The Allman Brothers Band - Stormy Monday
TTITLE2=The Butterfield Blues Band - New Walkin' Blues
TTITLE3=Eric Clapton - Tribute To Elmore
TTITLE4=The Robert Cray Band - Smoking Gun
TTITLE5=Muddy Waters - Mannish Boy
TTITLE6=George Thorogood - Who Do You Love
TTITLE7=Gary Moore - King Of The Blues
TTITLE8=Johnny Lee Hooker and Bonnie Raitt - I'm In The Mood
TTITLE9=Rory Gallagher - Ghost Blues
EXTD=
EXTT0=
EXTT1=
EXTT2=
EXTT3=
EXTT4=
EXTT5=
EXTT6=
EXTT7=
EXTT8=
EXTT9=
PLAYORDER=
